PathFileType	4	(x/y/z)	S06_BK_Cal_T01
DataRate	CameraRate	NumFrames	NumMarkers	Units	OrigDataRate	OrigDataStartFrame	OrigNumFrames
240	240	10	51	mm	240	1801	2880
Frame#	Time	Sternum			R.Acromium			L.Acromium			Top.Head			R.ASIS			L.ASIS			R.PSIS			L.PSIS			R.Great.Tro			L.Great.Tro			R.Iliac.Crest			L.Iliac.Crest			V.Sacral			R.Thigh.Upper.Post			R.Thigh.Lower.Ant			R.Thigh.Lower.Post			R.Thigh.Upper.Ant			R.Knee.Lat			R.Knee.Med			R.Shank.Upper.Post			R.Shank.Lower.Ant			R.Shank.Lower.Post			R.Shank.Upper.Ant			R.Ankle.Lat			R.Ankle.Med			R.Heel.Upper			R.Heel.Med			R.Heel.Lat			R.Toe.Lat			R.Toe.Med			R.Toe.Tip			L.Thigh.Upper.Post			L.Thigh.Lower.Ant			L.Thigh.Lower.Post			L.Thigh.Upper.Ant			L.Knee.Lat			L.Knee.Med			L.Shank.Upper.Post			L.Shank.Lower.Ant			L.Shank.Lower.Post			L.Shank.Upper.Ant			L.Ankle.Lat			L.Ankle.Med			L.Heel.Upper			L.Heel.Med			L.Heel.Lat			L.Toe.Lat			L.Toe.Med			L.Toe.Tip			Cervical.Spine			Back			
		X1	Y1	Z1	X2	Y2	Z2	X3	Y3	Z3	X4	Y4	Z4	X5	Y5	Z5	X6	Y6	Z6	X7	Y7	Z7	X8	Y8	Z8	X9	Y9	Z9	X10	Y10	Z10	X11	Y11	Z11	X12	Y12	Z12	X13	Y13	Z13	X14	Y14	Z14	X15	Y15	Z15	X16	Y16	Z16	X17	Y17	Z17	X18	Y18	Z18	X19	Y19	Z19	X20	Y20	Z20	X21	Y21	Z21	X22	Y22	Z22	X23	Y23	Z23	X24	Y24	Z24	X25	Y25	Z25	X26	Y26	Z26	X27	Y27	Z27	X28	Y28	Z28	X29	Y29	Z29	X30	Y30	Z30	X31	Y31	Z31	X32	Y32	Z32	X33	Y33	Z33	X34	Y34	Z34	X35	Y35	Z35	X36	Y36	Z36	X37	Y37	Z37	X38	Y38	Z38	X39	Y39	Z39	X40	Y40	Z40	X41	Y41	Z41	X42	Y42	Z42	X43	Y43	Z43	X44	Y44	Z44	X45	Y45	Z45	X46	Y46	Z46	X47	Y47	Z47	X48	Y48	Z48	X49	Y49	Z49	X50	Y50	Z50	X51	Y51	Z51	

1801	7.5	720.09	1244.3	326.54	603.55	1474.7	486.45	597.98	1469.6	155.38	669.63	1768	324.05	672.4	1009.1	450.41	676.62	1003.9	198.23	472.96	1030.9	355.18	474.02	1033.5	274.85	620.67	945.19	501.81	585.64	942.49	138.5	588.74	1086.8	480.18	608.92	1080.1	160.84	459.12	997.19	317.91	697.51	705.79	516.52	776.99	645.79	489.28	714.32	618.47	502.69	760.39	735.58	495.76	761.23	515.32	496.62	768.59	513.94	369.52	648.49	316.81	507.52	682.57	235.83	485.03	618.13	246	495.89	711.77	306.6	497.23	596.95	112.95	474.42	611.37	113.69	386.32	522.56	74.77	428.6	531.66	43.898	397.69	529.27	43.474	463.28	704.62	36.253	507.12	734.51	44.271	387.32	799.63	54.346	436.25	721.27	704.13	117.71	796.58	639.54	166.41	733.52	613.74	125.51	775.42	732.35	157.92	739.06	519.07	132.07	771.05	518.15	249.44	632.96	321.28	127.7	674.64	242.56	127.88	605.88	253.15	141.16	697.33	310.08	120.7	596.45	110.84	135.33	609.28	109.86	226.78	518.06	72.133	178.62	525	45.611	211.1	521.69	46.2	149.15	697.32	47.011	100.24	726.67	43.872	217.49	794.33	58.597	158.92	557.94	1507.6	322.02	484.43	1244.8	320.81
1802	7.5042	720.11	1244.3	326.48	603.56	1474.7	486.39	597.98	1469.6	155.32	669.62	1768	323.98	672.44	1009.1	450.35	676.64	1003.9	198.18	472.98	1030.9	355.11	474.05	1033.5	274.81	620.7	945.2	501.76	585.66	942.49	138.45	588.78	1086.8	480.14	608.94	1080.1	160.79	459.15	997.2	317.87	697.54	705.8	516.48	777.01	645.79	489.24	714.34	618.47	502.66	760.41	735.58	495.72	761.24	515.32	496.59	768.59	513.94	369.49	648.49	316.82	507.5	682.57	235.83	485.02	618.14	246	495.88	711.77	306.59	497.19	596.95	112.95	474.42	611.37	113.69	386.32	522.56	74.771	428.6	531.66	43.9	397.69	529.27	43.475	463.28	704.62	36.254	507.12	734.51	44.269	387.32	799.63	54.346	436.25	721.28	704.12	117.67	796.59	639.53	166.37	733.53	613.73	125.47	775.43	732.35	157.88	739.07	519.06	132.04	771.07	518.14	249.4	632.97	321.28	127.68	674.64	242.55	127.87	605.88	253.15	141.15	697.34	310.08	120.68	596.45	110.84	135.33	609.28	109.86	226.78	518.06	72.133	178.62	525	45.612	211.1	521.69	46.2	149.15	697.32	47.009	100.24	726.67	43.871	217.49	794.33	58.594	158.92	557.94	1507.5	321.96	484.45	1244.8	320.76
1803	7.5083	720.12	1244.3	326.42	603.56	1474.7	486.33	597.97	1469.6	155.25	669.61	1768	323.91	672.47	1009.1	450.3	676.66	1003.9	198.13	473	1030.9	355.05	474.08	1033.5	274.77	620.74	945.21	501.72	585.69	942.48	138.41	588.82	1086.8	480.09	608.95	1080.1	160.74	459.18	997.21	317.82	697.56	705.81	516.44	777.03	645.79	489.2	714.35	618.48	502.63	760.44	735.59	495.67	761.25	515.32	496.56	768.59	513.94	369.47	648.5	316.83	507.49	682.58	235.83	485.01	618.14	246.01	495.88	711.78	306.58	497.16	596.95	112.95	474.42	611.37	113.69	386.31	522.56	74.772	428.6	531.66	43.901	397.69	529.27	43.476	463.28	704.62	36.256	507.11	734.51	44.268	387.32	799.63	54.345	436.25	721.29	704.12	117.63	796.61	639.53	166.32	733.54	613.72	125.43	775.45	732.34	157.83	739.09	519.06	132.01	771.09	518.14	249.37	632.98	321.27	127.66	674.65	242.55	127.85	605.89	253.15	141.14	697.34	310.07	120.66	596.45	110.84	135.33	609.28	109.86	226.77	518.06	72.133	178.62	525	45.613	211.1	521.69	46.2	149.15	697.32	47.008	100.24	726.68	43.869	217.49	794.33	58.59	158.92	557.95	1507.5	321.9	484.47	1244.8	320.71
1804	7.5125	720.14	1244.3	326.37	603.57	1474.7	486.27	597.97	1469.6	155.19	669.6	1768	323.84	672.5	1009.1	450.25	676.69	1003.9	198.08	473.02	1030.9	354.98	474.11	1033.5	274.72	620.77	945.22	501.67	585.71	942.48	138.36	588.85	1086.8	480.04	608.97	1080.1	160.69	459.22	997.22	317.78	697.58	705.82	516.41	777.05	645.79	489.16	714.37	618.48	502.59	760.46	735.59	495.63	761.26	515.32	496.53	768.59	513.93	369.44	648.51	316.83	507.47	682.58	235.84	484.99	618.15	246.02	495.87	711.78	306.57	497.12	596.95	112.95	474.42	611.37	113.69	386.31	522.56	74.773	428.6	531.66	43.902	397.69	529.27	43.476	463.28	704.62	36.257	507.11	734.5	44.267	387.31	799.63	54.345	436.25	721.31	704.11	117.59	796.62	639.52	166.28	733.55	613.72	125.39	775.46	732.34	157.79	739.1	519.05	131.97	771.11	518.13	249.33	632.99	321.27	127.64	674.65	242.54	127.84	605.89	253.14	141.13	697.35	310.06	120.64	596.45	110.83	135.33	609.28	109.86	226.77	518.06	72.133	178.62	525	45.614	211.1	521.69	46.2	149.15	697.32	47.006	100.24	726.68	43.869	217.49	794.33	58.587	158.91	557.95	1507.5	321.85	484.49	1244.8	320.66
1805	7.5167	720.16	1244.4	326.31	603.57	1474.7	486.21	597.96	1469.5	155.12	669.59	1768	323.77	672.53	1009.1	450.19	676.71	1003.9	198.04	473.04	1030.9	354.92	474.14	1033.5	274.68	620.81	945.23	501.63	585.73	942.47	138.32	588.88	1086.8	479.99	608.98	1080.1	160.64	459.25	997.23	317.73	697.6	705.83	516.37	777.07	645.79	489.12	714.38	618.49	502.56	760.48	735.6	495.59	761.27	515.32	496.51	768.6	513.93	369.41	648.52	316.84	507.45	682.58	235.84	484.98	618.16	246.02	495.87	711.78	306.56	497.08	596.95	112.95	474.41	611.37	113.69	386.31	522.56	74.774	428.61	531.66	43.903	397.69	529.27	43.477	463.28	704.62	36.259	507.11	734.5	44.266	387.31	799.63	54.344	436.25	721.32	704.1	117.55	796.63	639.51	166.24	733.56	613.71	125.36	775.48	732.33	157.75	739.12	519.04	131.94	771.13	518.12	249.3	632.99	321.26	127.63	674.65	242.54	127.82	605.9	253.14	141.11	697.35	310.05	120.63	596.45	110.83	135.32	609.28	109.85	226.77	518.06	72.132	178.62	525	45.614	211.1	521.69	46.2	149.15	697.32	47.005	100.24	726.68	43.868	217.48	794.33	58.585	158.91	557.95	1507.5	321.79	484.5	1244.8	320.61
1806	7.5208	720.17	1244.4	326.25	603.57	1474.7	486.15	597.96	1469.5	155.06	669.58	1768	323.7	672.56	1009.2	450.14	676.73	1003.9	197.99	473.06	1030.9	354.87	474.17	1033.4	274.63	620.84	945.24	501.58	585.75	942.46	138.27	588.91	1086.8	479.95	609	1080.1	160.59	459.28	997.23	317.68	697.62	705.85	516.34	777.09	645.78	489.08	714.4	618.49	502.53	760.51	735.6	495.55	761.28	515.32	496.48	768.6	513.92	369.39	648.52	316.85	507.44	682.59	235.85	484.97	618.16	246.03	495.86	711.78	306.55	497.03	596.95	112.95	474.41	611.38	113.69	386.31	522.56	74.774	428.61	531.66	43.904	397.69	529.27	43.477	463.28	704.62	36.26	507.11	734.5	44.265	387.31	799.63	54.344	436.24	721.34	704.1	117.51	796.65	639.51	166.19	733.58	613.7	125.32	775.5	732.32	157.7	739.14	519.04	131.91	771.16	518.12	249.26	633	321.26	127.61	674.66	242.53	127.81	605.9	253.13	141.1	697.36	310.05	120.61	596.45	110.83	135.32	609.28	109.85	226.76	518.06	72.131	178.62	525	45.615	211.1	521.69	46.199	149.15	697.32	47.004	100.24	726.68	43.868	217.48	794.33	58.582	158.91	557.95	1507.5	321.73	484.52	1244.8	320.56
1807	7.525	720.19	1244.4	326.19	603.57	1474.7	486.09	597.96	1469.5	154.99	669.57	1768	323.63	672.6	1009.2	450.09	676.76	1003.9	197.94	473.09	1030.9	354.81	474.19	1033.4	274.58	620.88	945.24	501.54	585.77	942.45	138.23	588.94	1086.8	479.9	609.01	1080	160.54	459.32	997.24	317.64	697.64	705.86	516.3	777.11	645.78	489.05	714.42	618.49	502.5	760.53	735.61	495.51	761.29	515.32	496.45	768.6	513.92	369.36	648.53	316.85	507.42	682.59	235.85	484.96	618.17	246.03	495.85	711.79	306.53	496.99	596.95	112.95	474.41	611.38	113.69	386.3	522.56	74.775	428.61	531.66	43.904	397.69	529.27	43.478	463.28	704.62	36.262	507.11	734.5	44.264	387.31	799.63	54.344	436.24	721.35	704.09	117.48	796.67	639.5	166.15	733.59	613.69	125.28	775.52	732.31	157.66	739.16	519.03	131.88	771.18	518.11	249.23	633.01	321.25	127.59	674.66	242.52	127.79	605.91	253.13	141.09	697.37	310.04	120.59	596.45	110.83	135.32	609.28	109.85	226.76	518.06	72.131	178.62	525	45.615	211.1	521.69	46.199	149.15	697.32	47.003	100.23	726.68	43.868	217.48	794.33	58.58	158.91	557.95	1507.5	321.67	484.53	1244.8	320.51
1808	7.5292	720.2	1244.4	326.13	603.57	1474.8	486.03	597.95	1469.5	154.93	669.55	1768	323.56	672.63	1009.2	450.03	676.78	1003.9	197.89	473.11	1030.9	354.76	474.22	1033.4	274.53	620.91	945.25	501.49	585.79	942.44	138.19	588.97	1086.8	479.85	609.03	1080	160.49	459.35	997.24	317.59	697.67	705.87	516.27	777.13	645.78	489.01	714.43	618.49	502.47	760.55	735.61	495.47	761.3	515.32	496.43	768.61	513.92	369.34	648.54	316.86	507.41	682.6	235.85	484.95	618.18	246.03	495.85	711.79	306.52	496.95	596.95	112.96	474.41	611.38	113.69	386.3	522.56	74.776	428.61	531.66	43.904	397.69	529.27	43.478	463.28	704.62	36.263	507.11	734.5	44.264	387.31	799.63	54.344	436.24	721.37	704.08	117.44	796.68	639.49	166.11	733.6	613.68	125.25	775.54	732.31	157.61	739.18	519.02	131.85	771.2	518.11	249.2	633.02	321.25	127.58	674.66	242.52	127.78	605.91	253.13	141.08	697.38	310.03	120.57	596.45	110.83	135.32	609.28	109.85	226.75	518.06	72.13	178.62	525	45.616	211.1	521.69	46.198	149.15	697.32	47.002	100.23	726.68	43.869	217.48	794.33	58.579	158.91	557.95	1507.5	321.61	484.55	1244.8	320.46
1809	7.5333	720.22	1244.4	326.07	603.57	1474.8	485.97	597.95	1469.5	154.86	669.54	1768.1	323.49	672.66	1009.2	449.98	676.8	1003.9	197.85	473.13	1030.9	354.71	474.25	1033.4	274.49	620.95	945.26	501.45	585.81	942.43	138.15	588.99	1086.8	479.81	609.04	1080	160.44	459.39	997.25	317.54	697.69	705.88	516.23	777.15	645.78	488.98	714.45	618.5	502.44	760.58	735.61	495.44	761.31	515.32	496.4	768.61	513.91	369.32	648.55	316.86	507.39	682.61	235.85	484.94	618.19	246.04	495.84	711.8	306.51	496.91	596.95	112.96	474.41	611.38	113.7	386.3	522.55	74.777	428.61	531.66	43.903	397.7	529.27	43.478	463.28	704.62	36.264	507.11	734.5	44.263	387.31	799.63	54.344	436.24	721.38	704.07	117.4	796.7	639.48	166.07	733.62	613.67	125.21	775.56	732.3	157.57	739.2	519.02	131.82	771.22	518.1	249.16	633.03	321.24	127.56	674.67	242.51	127.77	605.92	253.12	141.07	697.38	310.02	120.55	596.45	110.83	135.31	609.28	109.85	226.75	518.06	72.129	178.62	525	45.616	211.1	521.69	46.197	149.15	697.32	47.002	100.23	726.68	43.87	217.48	794.33	58.577	158.9	557.95	1507.5	321.55	484.56	1244.8	320.41
1810	7.5375	720.23	1244.4	326.01	603.56	1474.8	485.91	597.95	1469.5	154.8	669.52	1768.1	323.42	672.68	1009.2	449.93	676.83	1003.9	197.8	473.15	1030.9	354.67	474.28	1033.4	274.44	620.98	945.26	501.41	585.83	942.41	138.1	589.02	1086.9	479.76	609.06	1080	160.4	459.42	997.25	317.49	697.71	705.88	516.2	777.17	645.77	488.94	714.46	618.5	502.41	760.6	735.62	495.4	761.32	515.32	496.38	768.62	513.91	369.29	648.56	316.87	507.38	682.61	235.86	484.93	618.2	246.04	495.84	711.8	306.49	496.87	596.95	112.96	474.4	611.38	113.7	386.3	522.55	74.777	428.61	531.66	43.903	397.7	529.27	43.479	463.28	704.62	36.265	507.11	734.5	44.263	387.31	799.63	54.344	436.24	721.4	704.06	117.36	796.72	639.47	166.03	733.64	613.66	125.17	775.58	732.29	157.53	739.23	519.01	131.79	771.25	518.1	249.13	633.05	321.24	127.54	674.68	242.5	127.75	605.92	253.12	141.06	697.39	310.01	120.54	596.45	110.83	135.31	609.28	109.84	226.75	518.06	72.128	178.62	525	45.617	211.1	521.69	46.197	149.15	697.32	47.001	100.23	726.68	43.871	217.48	794.34	58.576	158.9	557.95	1507.5	321.49	484.57	1244.8	320.35
